ISO-10303-21;
HEADER;
/* Generated by software containing ST-Developer
 * from STEP Tools, Inc. (www.steptools.com) 
 */

FILE_DESCRIPTION(
/* description */ (''),
/* implementation_level */ '2;1');

FILE_NAME(
/* name */ 'Macropad Bottom.step',
/* time_stamp */ '2026-04-06T14:48:32+05:30',
/* author */ (''),
/* organization */ (''),
/* preprocessor_version */ 'ST-DEVELOPER v20.1',
/* originating_system */ 'Autodesk Translation Framework v14.24.0.0',
/* authorisation */ '');

FILE_SCHEMA (('AUTOMOTIVE_DESIGN { 1 0 10303 214 3 1 1 }'));
ENDSEC;

DATA;
#10=MECHANICAL_DESIGN_GEOMETRIC_PRESENTATION_REPRESENTATION('',(#17),#937);
#11=ITEM_DEFINED_TRANSFORMATION($,$,#561,#616);
#12=(
REPRESENTATION_RELATIONSHIP($,$,#948,#947)
REPRESENTATION_RELATIONSHIP_WITH_TRANSFORMATION(#11)
SHAPE_REPRESENTATION_RELATIONSHIP()
);
#13=CONTEXT_DEPENDENT_SHAPE_REPRESENTATION(#12,#946);
#14=NEXT_ASSEMBLY_USAGE_OCCURRENCE('Custom Macropad:1',
'Custom Macropad:1','Custom Macropad:1',#950,#951,'Custom Macropad:1');
#15=SHAPE_REPRESENTATION_RELATIONSHIP('SRR','None',#948,#16);
#16=ADVANCED_BREP_SHAPE_REPRESENTATION('',(#18),#936);
#17=STYLED_ITEM('',(#961),#18);
#18=MANIFOLD_SOLID_BREP('Body1',#547);
#19=CYLINDRICAL_SURFACE('',#571,5.);
#20=CYLINDRICAL_SURFACE('',#582,5.);
#21=CYLINDRICAL_SURFACE('',#584,5.);
#22=CYLINDRICAL_SURFACE('',#586,5.);
#23=CYLINDRICAL_SURFACE('',#594,3.);
#24=CYLINDRICAL_SURFACE('',#596,3.);
#25=CYLINDRICAL_SURFACE('',#598,3.);
#26=CYLINDRICAL_SURFACE('',#600,3.);
#27=CYLINDRICAL_SURFACE('',#604,1.7);
#28=CYLINDRICAL_SURFACE('',#607,1.7);
#29=CYLINDRICAL_SURFACE('',#610,1.7);
#30=CYLINDRICAL_SURFACE('',#613,1.7);
#31=FACE_BOUND('',#74,.T.);
#32=FACE_BOUND('',#75,.T.);
#33=FACE_BOUND('',#76,.T.);
#34=FACE_BOUND('',#77,.T.);
#35=FACE_BOUND('',#81,.T.);
#36=FACE_BOUND('',#82,.T.);
#37=FACE_BOUND('',#83,.T.);
#38=FACE_BOUND('',#84,.T.);
#39=FACE_BOUND('',#105,.T.);
#40=FACE_BOUND('',#108,.T.);
#41=FACE_BOUND('',#111,.T.);
#42=FACE_BOUND('',#114,.T.);
#43=FACE_OUTER_BOUND('',#73,.T.);
#44=FACE_OUTER_BOUND('',#78,.T.);
#45=FACE_OUTER_BOUND('',#79,.T.);
#46=FACE_OUTER_BOUND('',#80,.T.);
#47=FACE_OUTER_BOUND('',#85,.T.);
#48=FACE_OUTER_BOUND('',#86,.T.);
#49=FACE_OUTER_BOUND('',#87,.T.);
#50=FACE_OUTER_BOUND('',#88,.T.);
#51=FACE_OUTER_BOUND('',#89,.T.);
#52=FACE_OUTER_BOUND('',#90,.T.);
#53=FACE_OUTER_BOUND('',#91,.T.);
#54=FACE_OUTER_BOUND('',#92,.T.);
#55=FACE_OUTER_BOUND('',#93,.T.);
#56=FACE_OUTER_BOUND('',#94,.T.);
#57=FACE_OUTER_BOUND('',#95,.T.);
#58=FACE_OUTER_BOUND('',#96,.T.);
#59=FACE_OUTER_BOUND('',#97,.T.);
#60=FACE_OUTER_BOUND('',#98,.T.);
#61=FACE_OUTER_BOUND('',#99,.T.);
#62=FACE_OUTER_BOUND('',#100,.T.);
#63=FACE_OUTER_BOUND('',#101,.T.);
#64=FACE_OUTER_BOUND('',#102,.T.);
#65=FACE_OUTER_BOUND('',#103,.T.);
#66=FACE_OUTER_BOUND('',#104,.T.);
#67=FACE_OUTER_BOUND('',#106,.T.);
#68=FACE_OUTER_BOUND('',#107,.T.);
#69=FACE_OUTER_BOUND('',#109,.T.);
#70=FACE_OUTER_BOUND('',#110,.T.);
#71=FACE_OUTER_BOUND('',#112,.T.);
#72=FACE_OUTER_BOUND('',#113,.T.);
#73=EDGE_LOOP('',(#355,#356,#357,#358,#359,#360,#361,#362));
#74=EDGE_LOOP('',(#363));
#75=EDGE_LOOP('',(#364));
#76=EDGE_LOOP('',(#365));
#77=EDGE_LOOP('',(#366));
#78=EDGE_LOOP('',(#367,#368,#369,#370));
#79=EDGE_LOOP('',(#371,#372,#373,#374));
#80=EDGE_LOOP('',(#375,#376,#377,#378,#379,#380,#381,#382,#383,#384,#385,
#386,#387,#388,#389,#390));
#81=EDGE_LOOP('',(#391));
#82=EDGE_LOOP('',(#392));
#83=EDGE_LOOP('',(#393));
#84=EDGE_LOOP('',(#394));
#85=EDGE_LOOP('',(#395,#396,#397,#398));
#86=EDGE_LOOP('',(#399,#400,#401,#402));
#87=EDGE_LOOP('',(#403,#404,#405,#406));
#88=EDGE_LOOP('',(#407,#408,#409,#410));
#89=EDGE_LOOP('',(#411,#412,#413,#414));
#90=EDGE_LOOP('',(#415,#416,#417,#418,#419,#420,#421,#422));
#91=EDGE_LOOP('',(#423,#424,#425,#426));
#92=EDGE_LOOP('',(#427,#428,#429,#430));
#93=EDGE_LOOP('',(#431,#432,#433,#434));
#94=EDGE_LOOP('',(#435,#436,#437,#438));
#95=EDGE_LOOP('',(#439,#440,#441,#442));
#96=EDGE_LOOP('',(#443,#444,#445,#446));
#97=EDGE_LOOP('',(#447,#448,#449,#450));
#98=EDGE_LOOP('',(#451,#452,#453,#454));
#99=EDGE_LOOP('',(#455,#456,#457,#458));
#100=EDGE_LOOP('',(#459,#460,#461,#462));
#101=EDGE_LOOP('',(#463,#464,#465,#466,#467,#468,#469,#470));
#102=EDGE_LOOP('',(#471,#472,#473,#474));
#103=EDGE_LOOP('',(#475,#476,#477,#478));
#104=EDGE_LOOP('',(#479));
#105=EDGE_LOOP('',(#480));
#106=EDGE_LOOP('',(#481,#482,#483,#484));
#107=EDGE_LOOP('',(#485));
#108=EDGE_LOOP('',(#486));
#109=EDGE_LOOP('',(#487,#488,#489,#490));
#110=EDGE_LOOP('',(#491));
#111=EDGE_LOOP('',(#492));
#112=EDGE_LOOP('',(#493,#494,#495,#496));
#113=EDGE_LOOP('',(#497));
#114=EDGE_LOOP('',(#498));
#115=LINE('',#786,#163);
#116=LINE('',#790,#164);
#117=LINE('',#794,#165);
#118=LINE('',#797,#166);
#119=LINE('',#810,#167);
#120=LINE('',#811,#168);
#121=LINE('',#814,#169);
#122=LINE('',#815,#170);
#123=LINE('',#818,#171);
#124=LINE('',#820,#172);
#125=LINE('',#822,#173);
#126=LINE('',#824,#174);
#127=LINE('',#826,#175);
#128=LINE('',#828,#176);
#129=LINE('',#830,#177);
#130=LINE('',#832,#178);
#131=LINE('',#834,#179);
#132=LINE('',#838,#180);
#133=LINE('',#842,#181);
#134=LINE('',#853,#182);
#135=LINE('',#855,#183);
#136=LINE('',#857,#184);
#137=LINE('',#859,#185);
#138=LINE('',#861,#186);
#139=LINE('',#864,#187);
#140=LINE('',#866,#188);
#141=LINE('',#867,#189);
#142=LINE('',#870,#190);
#143=LINE('',#871,#191);
#144=LINE('',#874,#192);
#145=LINE('',#875,#193);
#146=LINE('',#877,#194);
#147=LINE('',#881,#195);
#148=LINE('',#883,#196);
#149=LINE('',#885,#197);
#150=LINE('',#886,#198);
#151=LINE('',#888,#199);
#152=LINE('',#889,#200);
#153=LINE('',#891,#201);
#154=LINE('',#895,#202);
#155=LINE('',#899,#203);
#156=LINE('',#903,#204);
#157=LINE('',#907,#205);
#158=LINE('',#909,#206);
#159=LINE('',#913,#207);
#160=LINE('',#918,#208);
#161=LINE('',#923,#209);
#162=LINE('',#928,#210);
#163=VECTOR('',#625,10.);
#164=VECTOR('',#628,10.);
#165=VECTOR('',#631,10.);
#166=VECTOR('',#634,10.);
#167=VECTOR('',#647,10.);
#168=VECTOR('',#648,10.);
#169=VECTOR('',#651,10.);
#170=VECTOR('',#652,10.);
#171=VECTOR('',#655,10.);
#172=VECTOR('',#656,10.);
#173=VECTOR('',#657,10.);
#174=VECTOR('',#658,10.);
#175=VECTOR('',#659,10.);
#176=VECTOR('',#660,10.);
#177=VECTOR('',#661,10.);
#178=VECTOR('',#662,10.);
#179=VECTOR('',#663,10.);
#180=VECTOR('',#666,10.);
#181=VECTOR('',#669,10.);
#182=VECTOR('',#682,10.);
#183=VECTOR('',#685,10.);
#184=VECTOR('',#688,10.);
#185=VECTOR('',#691,10.);
#186=VECTOR('',#694,10.);
#187=VECTOR('',#697,10.);
#188=VECTOR('',#698,10.);
#189=VECTOR('',#699,10.);
#190=VECTOR('',#702,10.);
#191=VECTOR('',#703,10.);
#192=VECTOR('',#706,10.);
#193=VECTOR('',#707,10.);
#194=VECTOR('',#710,10.);
#195=VECTOR('',#713,10.);
#196=VECTOR('',#714,10.);
#197=VECTOR('',#715,10.);
#198=VECTOR('',#716,10.);
#199=VECTOR('',#719,10.);
#200=VECTOR('',#720,10.);
#201=VECTOR('',#723,10.);
#202=VECTOR('',#728,3.);
#203=VECTOR('',#733,3.);
#204=VECTOR('',#738,3.);
#205=VECTOR('',#743,3.);
#206=VECTOR('',#746,10.);
#207=VECTOR('',#751,1.7);
#208=VECTOR('',#758,1.7);
#209=VECTOR('',#765,1.7);
#210=VECTOR('',#772,1.7);
#211=CIRCLE('',#563,5.);
#212=CIRCLE('',#564,5.);
#213=CIRCLE('',#565,5.);
#214=CIRCLE('',#566,5.);
#215=CIRCLE('',#567,3.);
#216=CIRCLE('',#568,3.);
#217=CIRCLE('',#569,3.);
#218=CIRCLE('',#570,3.);
#219=CIRCLE('',#572,5.);
#220=CIRCLE('',#575,5.);
#221=CIRCLE('',#576,5.);
#222=CIRCLE('',#577,5.);
#223=CIRCLE('',#578,1.7);
#224=CIRCLE('',#579,1.7);
#225=CIRCLE('',#580,1.7);
#226=CIRCLE('',#581,1.7);
#227=CIRCLE('',#595,3.);
#228=CIRCLE('',#597,3.);
#229=CIRCLE('',#599,3.);
#230=CIRCLE('',#601,3.);
#231=CIRCLE('',#605,1.7);
#232=CIRCLE('',#608,1.7);
#233=CIRCLE('',#611,1.7);
#234=CIRCLE('',#614,1.7);
#235=VERTEX_POINT('',#782);
#236=VERTEX_POINT('',#783);
#237=VERTEX_POINT('',#785);
#238=VERTEX_POINT('',#787);
#239=VERTEX_POINT('',#789);
#240=VERTEX_POINT('',#791);
#241=VERTEX_POINT('',#793);
#242=VERTEX_POINT('',#795);
#243=VERTEX_POINT('',#798);
#244=VERTEX_POINT('',#800);
#245=VERTEX_POINT('',#802);
#246=VERTEX_POINT('',#804);
#247=VERTEX_POINT('',#807);
#248=VERTEX_POINT('',#808);
#249=VERTEX_POINT('',#813);
#250=VERTEX_POINT('',#817);
#251=VERTEX_POINT('',#819);
#252=VERTEX_POINT('',#821);
#253=VERTEX_POINT('',#823);
#254=VERTEX_POINT('',#825);
#255=VERTEX_POINT('',#827);
#256=VERTEX_POINT('',#829);
#257=VERTEX_POINT('',#831);
#258=VERTEX_POINT('',#833);
#259=VERTEX_POINT('',#835);
#260=VERTEX_POINT('',#837);
#261=VERTEX_POINT('',#839);
#262=VERTEX_POINT('',#841);
#263=VERTEX_POINT('',#844);
#264=VERTEX_POINT('',#846);
#265=VERTEX_POINT('',#848);
#266=VERTEX_POINT('',#850);
#267=VERTEX_POINT('',#863);
#268=VERTEX_POINT('',#865);
#269=VERTEX_POINT('',#869);
#270=VERTEX_POINT('',#873);
#271=VERTEX_POINT('',#879);
#272=VERTEX_POINT('',#880);
#273=VERTEX_POINT('',#882);
#274=VERTEX_POINT('',#884);
#275=VERTEX_POINT('',#893);
#276=VERTEX_POINT('',#897);
#277=VERTEX_POINT('',#901);
#278=VERTEX_POINT('',#905);
#279=VERTEX_POINT('',#912);
#280=VERTEX_POINT('',#917);
#281=VERTEX_POINT('',#922);
#282=VERTEX_POINT('',#927);
#283=EDGE_CURVE('',#235,#236,#211,.T.);
#284=EDGE_CURVE('',#235,#237,#115,.T.);
#285=EDGE_CURVE('',#238,#237,#212,.T.);
#286=EDGE_CURVE('',#238,#239,#116,.T.);
#287=EDGE_CURVE('',#240,#239,#213,.T.);
#288=EDGE_CURVE('',#240,#241,#117,.T.);
#289=EDGE_CURVE('',#242,#241,#214,.T.);
#290=EDGE_CURVE('',#242,#236,#118,.T.);
#291=EDGE_CURVE('',#243,#243,#215,.T.);
#292=EDGE_CURVE('',#244,#244,#216,.T.);
#293=EDGE_CURVE('',#245,#245,#217,.T.);
#294=EDGE_CURVE('',#246,#246,#218,.T.);
#295=EDGE_CURVE('',#247,#248,#219,.T.);
#296=EDGE_CURVE('',#248,#235,#119,.T.);
#297=EDGE_CURVE('',#236,#247,#120,.T.);
#298=EDGE_CURVE('',#249,#248,#121,.T.);
#299=EDGE_CURVE('',#237,#249,#122,.T.);
#300=EDGE_CURVE('',#247,#250,#123,.T.);
#301=EDGE_CURVE('',#250,#251,#124,.T.);
#302=EDGE_CURVE('',#251,#252,#125,.T.);
#303=EDGE_CURVE('',#252,#253,#126,.T.);
#304=EDGE_CURVE('',#253,#254,#127,.T.);
#305=EDGE_CURVE('',#254,#255,#128,.T.);
#306=EDGE_CURVE('',#255,#256,#129,.T.);
#307=EDGE_CURVE('',#256,#257,#130,.T.);
#308=EDGE_CURVE('',#257,#258,#131,.T.);
#309=EDGE_CURVE('',#259,#258,#220,.T.);
#310=EDGE_CURVE('',#259,#260,#132,.T.);
#311=EDGE_CURVE('',#261,#260,#221,.T.);
#312=EDGE_CURVE('',#261,#262,#133,.T.);
#313=EDGE_CURVE('',#249,#262,#222,.T.);
#314=EDGE_CURVE('',#263,#263,#223,.T.);
#315=EDGE_CURVE('',#264,#264,#224,.T.);
#316=EDGE_CURVE('',#265,#265,#225,.T.);
#317=EDGE_CURVE('',#266,#266,#226,.T.);
#318=EDGE_CURVE('',#262,#238,#134,.T.);
#319=EDGE_CURVE('',#239,#261,#135,.T.);
#320=EDGE_CURVE('',#260,#240,#136,.T.);
#321=EDGE_CURVE('',#241,#259,#137,.T.);
#322=EDGE_CURVE('',#258,#242,#138,.T.);
#323=EDGE_CURVE('',#257,#267,#139,.T.);
#324=EDGE_CURVE('',#267,#268,#140,.T.);
#325=EDGE_CURVE('',#268,#250,#141,.T.);
#326=EDGE_CURVE('',#268,#269,#142,.T.);
#327=EDGE_CURVE('',#251,#269,#143,.T.);
#328=EDGE_CURVE('',#270,#256,#144,.T.);
#329=EDGE_CURVE('',#270,#267,#145,.T.);
#330=EDGE_CURVE('',#269,#270,#146,.T.);
#331=EDGE_CURVE('',#271,#272,#147,.T.);
#332=EDGE_CURVE('',#273,#271,#148,.T.);
#333=EDGE_CURVE('',#274,#273,#149,.T.);
#334=EDGE_CURVE('',#272,#274,#150,.T.);
#335=EDGE_CURVE('',#273,#253,#151,.T.);
#336=EDGE_CURVE('',#274,#252,#152,.T.);
#337=EDGE_CURVE('',#271,#254,#153,.T.);
#338=EDGE_CURVE('',#275,#275,#227,.T.);
#339=EDGE_CURVE('',#275,#246,#154,.T.);
#340=EDGE_CURVE('',#276,#276,#228,.T.);
#341=EDGE_CURVE('',#276,#243,#155,.T.);
#342=EDGE_CURVE('',#277,#277,#229,.T.);
#343=EDGE_CURVE('',#277,#244,#156,.T.);
#344=EDGE_CURVE('',#278,#278,#230,.T.);
#345=EDGE_CURVE('',#278,#245,#157,.T.);
#346=EDGE_CURVE('',#272,#255,#158,.T.);
#347=EDGE_CURVE('',#265,#279,#159,.T.);
#348=EDGE_CURVE('',#279,#279,#231,.T.);
#349=EDGE_CURVE('',#264,#280,#160,.T.);
#350=EDGE_CURVE('',#280,#280,#232,.T.);
#351=EDGE_CURVE('',#266,#281,#161,.T.);
#352=EDGE_CURVE('',#281,#281,#233,.T.);
#353=EDGE_CURVE('',#263,#282,#162,.T.);
#354=EDGE_CURVE('',#282,#282,#234,.T.);
#355=ORIENTED_EDGE('',*,*,#283,.F.);
#356=ORIENTED_EDGE('',*,*,#284,.T.);
#357=ORIENTED_EDGE('',*,*,#285,.F.);
#358=ORIENTED_EDGE('',*,*,#286,.T.);
#359=ORIENTED_EDGE('',*,*,#287,.F.);
#360=ORIENTED_EDGE('',*,*,#288,.T.);
#361=ORIENTED_EDGE('',*,*,#289,.F.);
#362=ORIENTED_EDGE('',*,*,#290,.T.);
#363=ORIENTED_EDGE('',*,*,#291,.F.);
#364=ORIENTED_EDGE('',*,*,#292,.F.);
#365=ORIENTED_EDGE('',*,*,#293,.F.);
#366=ORIENTED_EDGE('',*,*,#294,.F.);
#367=ORIENTED_EDGE('',*,*,#295,.T.);
#368=ORIENTED_EDGE('',*,*,#296,.T.);
#369=ORIENTED_EDGE('',*,*,#283,.T.);
#370=ORIENTED_EDGE('',*,*,#297,.T.);
#371=ORIENTED_EDGE('',*,*,#296,.F.);
#372=ORIENTED_EDGE('',*,*,#298,.F.);
#373=ORIENTED_EDGE('',*,*,#299,.F.);
#374=ORIENTED_EDGE('',*,*,#284,.F.);
#375=ORIENTED_EDGE('',*,*,#295,.F.);
#376=ORIENTED_EDGE('',*,*,#300,.T.);
#377=ORIENTED_EDGE('',*,*,#301,.T.);
#378=ORIENTED_EDGE('',*,*,#302,.T.);
#379=ORIENTED_EDGE('',*,*,#303,.T.);
#380=ORIENTED_EDGE('',*,*,#304,.T.);
#381=ORIENTED_EDGE('',*,*,#305,.T.);
#382=ORIENTED_EDGE('',*,*,#306,.T.);
#383=ORIENTED_EDGE('',*,*,#307,.T.);
#384=ORIENTED_EDGE('',*,*,#308,.T.);
#385=ORIENTED_EDGE('',*,*,#309,.F.);
#386=ORIENTED_EDGE('',*,*,#310,.T.);
#387=ORIENTED_EDGE('',*,*,#311,.F.);
#388=ORIENTED_EDGE('',*,*,#312,.T.);
#389=ORIENTED_EDGE('',*,*,#313,.F.);
#390=ORIENTED_EDGE('',*,*,#298,.T.);
#391=ORIENTED_EDGE('',*,*,#314,.T.);
#392=ORIENTED_EDGE('',*,*,#315,.T.);
#393=ORIENTED_EDGE('',*,*,#316,.T.);
#394=ORIENTED_EDGE('',*,*,#317,.T.);
#395=ORIENTED_EDGE('',*,*,#313,.T.);
#396=ORIENTED_EDGE('',*,*,#318,.T.);
#397=ORIENTED_EDGE('',*,*,#285,.T.);
#398=ORIENTED_EDGE('',*,*,#299,.T.);
#399=ORIENTED_EDGE('',*,*,#318,.F.);
#400=ORIENTED_EDGE('',*,*,#312,.F.);
#401=ORIENTED_EDGE('',*,*,#319,.F.);
#402=ORIENTED_EDGE('',*,*,#286,.F.);
#403=ORIENTED_EDGE('',*,*,#311,.T.);
#404=ORIENTED_EDGE('',*,*,#320,.T.);
#405=ORIENTED_EDGE('',*,*,#287,.T.);
#406=ORIENTED_EDGE('',*,*,#319,.T.);
#407=ORIENTED_EDGE('',*,*,#320,.F.);
#408=ORIENTED_EDGE('',*,*,#310,.F.);
#409=ORIENTED_EDGE('',*,*,#321,.F.);
#410=ORIENTED_EDGE('',*,*,#288,.F.);
#411=ORIENTED_EDGE('',*,*,#309,.T.);
#412=ORIENTED_EDGE('',*,*,#322,.T.);
#413=ORIENTED_EDGE('',*,*,#289,.T.);
#414=ORIENTED_EDGE('',*,*,#321,.T.);
#415=ORIENTED_EDGE('',*,*,#297,.F.);
#416=ORIENTED_EDGE('',*,*,#290,.F.);
#417=ORIENTED_EDGE('',*,*,#322,.F.);
#418=ORIENTED_EDGE('',*,*,#308,.F.);
#419=ORIENTED_EDGE('',*,*,#323,.T.);
#420=ORIENTED_EDGE('',*,*,#324,.T.);
#421=ORIENTED_EDGE('',*,*,#325,.T.);
#422=ORIENTED_EDGE('',*,*,#300,.F.);
#423=ORIENTED_EDGE('',*,*,#301,.F.);
#424=ORIENTED_EDGE('',*,*,#325,.F.);
#425=ORIENTED_EDGE('',*,*,#326,.T.);
#426=ORIENTED_EDGE('',*,*,#327,.F.);
#427=ORIENTED_EDGE('',*,*,#307,.F.);
#428=ORIENTED_EDGE('',*,*,#328,.F.);
#429=ORIENTED_EDGE('',*,*,#329,.T.);
#430=ORIENTED_EDGE('',*,*,#323,.F.);
#431=ORIENTED_EDGE('',*,*,#329,.F.);
#432=ORIENTED_EDGE('',*,*,#330,.F.);
#433=ORIENTED_EDGE('',*,*,#326,.F.);
#434=ORIENTED_EDGE('',*,*,#324,.F.);
#435=ORIENTED_EDGE('',*,*,#331,.F.);
#436=ORIENTED_EDGE('',*,*,#332,.F.);
#437=ORIENTED_EDGE('',*,*,#333,.F.);
#438=ORIENTED_EDGE('',*,*,#334,.F.);
#439=ORIENTED_EDGE('',*,*,#333,.T.);
#440=ORIENTED_EDGE('',*,*,#335,.T.);
#441=ORIENTED_EDGE('',*,*,#303,.F.);
#442=ORIENTED_EDGE('',*,*,#336,.F.);
#443=ORIENTED_EDGE('',*,*,#332,.T.);
#444=ORIENTED_EDGE('',*,*,#337,.T.);
#445=ORIENTED_EDGE('',*,*,#304,.F.);
#446=ORIENTED_EDGE('',*,*,#335,.F.);
#447=ORIENTED_EDGE('',*,*,#338,.T.);
#448=ORIENTED_EDGE('',*,*,#339,.T.);
#449=ORIENTED_EDGE('',*,*,#294,.T.);
#450=ORIENTED_EDGE('',*,*,#339,.F.);
#451=ORIENTED_EDGE('',*,*,#340,.T.);
#452=ORIENTED_EDGE('',*,*,#341,.T.);
#453=ORIENTED_EDGE('',*,*,#291,.T.);
#454=ORIENTED_EDGE('',*,*,#341,.F.);
#455=ORIENTED_EDGE('',*,*,#342,.T.);
#456=ORIENTED_EDGE('',*,*,#343,.T.);
#457=ORIENTED_EDGE('',*,*,#292,.T.);
#458=ORIENTED_EDGE('',*,*,#343,.F.);
#459=ORIENTED_EDGE('',*,*,#344,.T.);
#460=ORIENTED_EDGE('',*,*,#345,.T.);
#461=ORIENTED_EDGE('',*,*,#293,.T.);
#462=ORIENTED_EDGE('',*,*,#345,.F.);
#463=ORIENTED_EDGE('',*,*,#328,.T.);
#464=ORIENTED_EDGE('',*,*,#306,.F.);
#465=ORIENTED_EDGE('',*,*,#346,.F.);
#466=ORIENTED_EDGE('',*,*,#334,.T.);
#467=ORIENTED_EDGE('',*,*,#336,.T.);
#468=ORIENTED_EDGE('',*,*,#302,.F.);
#469=ORIENTED_EDGE('',*,*,#327,.T.);
#470=ORIENTED_EDGE('',*,*,#330,.T.);
#471=ORIENTED_EDGE('',*,*,#331,.T.);
#472=ORIENTED_EDGE('',*,*,#346,.T.);
#473=ORIENTED_EDGE('',*,*,#305,.F.);
#474=ORIENTED_EDGE('',*,*,#337,.F.);
#475=ORIENTED_EDGE('',*,*,#316,.F.);
#476=ORIENTED_EDGE('',*,*,#347,.T.);
#477=ORIENTED_EDGE('',*,*,#348,.T.);
#478=ORIENTED_EDGE('',*,*,#347,.F.);
#479=ORIENTED_EDGE('',*,*,#344,.F.);
#480=ORIENTED_EDGE('',*,*,#348,.F.);
#481=ORIENTED_EDGE('',*,*,#315,.F.);
#482=ORIENTED_EDGE('',*,*,#349,.T.);
#483=ORIENTED_EDGE('',*,*,#350,.T.);
#484=ORIENTED_EDGE('',*,*,#349,.F.);
#485=ORIENTED_EDGE('',*,*,#342,.F.);
#486=ORIENTED_EDGE('',*,*,#350,.F.);
#487=ORIENTED_EDGE('',*,*,#317,.F.);
#488=ORIENTED_EDGE('',*,*,#351,.T.);
#489=ORIENTED_EDGE('',*,*,#352,.T.);
#490=ORIENTED_EDGE('',*,*,#351,.F.);
#491=ORIENTED_EDGE('',*,*,#340,.F.);
#492=ORIENTED_EDGE('',*,*,#352,.F.);
#493=ORIENTED_EDGE('',*,*,#314,.F.);
#494=ORIENTED_EDGE('',*,*,#353,.T.);
#495=ORIENTED_EDGE('',*,*,#354,.T.);
#496=ORIENTED_EDGE('',*,*,#353,.F.);
#497=ORIENTED_EDGE('',*,*,#338,.F.);
#498=ORIENTED_EDGE('',*,*,#354,.F.);
#499=PLANE('',#562);
#500=PLANE('',#573);
#501=PLANE('',#574);
#502=PLANE('',#583);
#503=PLANE('',#585);
#504=PLANE('',#587);
#505=PLANE('',#588);
#506=PLANE('',#589);
#507=PLANE('',#590);
#508=PLANE('',#591);
#509=PLANE('',#592);
#510=PLANE('',#593);
#511=PLANE('',#602);
#512=PLANE('',#603);
#513=PLANE('',#606);
#514=PLANE('',#609);
#515=PLANE('',#612);
#516=PLANE('',#615);
#517=ADVANCED_FACE('',(#43,#31,#32,#33,#34),#499,.F.);
#518=ADVANCED_FACE('',(#44),#19,.T.);
#519=ADVANCED_FACE('',(#45),#500,.T.);
#520=ADVANCED_FACE('',(#46,#35,#36,#37,#38),#501,.T.);
#521=ADVANCED_FACE('',(#47),#20,.T.);
#522=ADVANCED_FACE('',(#48),#502,.T.);
#523=ADVANCED_FACE('',(#49),#21,.T.);
#524=ADVANCED_FACE('',(#50),#503,.T.);
#525=ADVANCED_FACE('',(#51),#22,.T.);
#526=ADVANCED_FACE('',(#52),#504,.T.);
#527=ADVANCED_FACE('',(#53),#505,.F.);
#528=ADVANCED_FACE('',(#54),#506,.F.);
#529=ADVANCED_FACE('',(#55),#507,.F.);
#530=ADVANCED_FACE('',(#56),#508,.T.);
#531=ADVANCED_FACE('',(#57),#509,.T.);
#532=ADVANCED_FACE('',(#58),#510,.T.);
#533=ADVANCED_FACE('',(#59),#23,.F.);
#534=ADVANCED_FACE('',(#60),#24,.F.);
#535=ADVANCED_FACE('',(#61),#25,.F.);
#536=ADVANCED_FACE('',(#62),#26,.F.);
#537=ADVANCED_FACE('',(#63),#511,.T.);
#538=ADVANCED_FACE('',(#64),#512,.T.);
#539=ADVANCED_FACE('',(#65),#27,.F.);
#540=ADVANCED_FACE('',(#66,#39),#513,.F.);
#541=ADVANCED_FACE('',(#67),#28,.F.);
#542=ADVANCED_FACE('',(#68,#40),#514,.F.);
#543=ADVANCED_FACE('',(#69),#29,.F.);
#544=ADVANCED_FACE('',(#70,#41),#515,.F.);
#545=ADVANCED_FACE('',(#71),#30,.F.);
#546=ADVANCED_FACE('',(#72,#42),#516,.F.);
#547=CLOSED_SHELL('',(#517,#518,#519,#520,#521,#522,#523,#524,#525,#526,
#527,#528,#529,#530,#531,#532,#533,#534,#535,#536,#537,#538,#539,#540,#541,
#542,#543,#544,#545,#546));
#548=DERIVED_UNIT_ELEMENT(#550,1.);
#549=DERIVED_UNIT_ELEMENT(#939,-3.);
#550=(
MASS_UNIT()
NAMED_UNIT(*)
SI_UNIT(.KILO.,.GRAM.)
);
#551=DERIVED_UNIT((#548,#549));
#552=MEASURE_REPRESENTATION_ITEM('density measure',
POSITIVE_RATIO_MEASURE(7850.),#551);
#553=PROPERTY_DEFINITION_REPRESENTATION(#558,#555);
#554=PROPERTY_DEFINITION_REPRESENTATION(#559,#556);
#555=REPRESENTATION('material name',(#557),#936);
#556=REPRESENTATION('density',(#552),#936);
#557=DESCRIPTIVE_REPRESENTATION_ITEM('Steel','Steel');
#558=PROPERTY_DEFINITION('material property','material name',#951);
#559=PROPERTY_DEFINITION('material property','density of part',#951);
#560=AXIS2_PLACEMENT_3D('',#779,#617,#618);
#561=AXIS2_PLACEMENT_3D('',#780,#619,#620);
#562=AXIS2_PLACEMENT_3D('',#781,#621,#622);
#563=AXIS2_PLACEMENT_3D('',#784,#623,#624);
#564=AXIS2_PLACEMENT_3D('',#788,#626,#627);
#565=AXIS2_PLACEMENT_3D('',#792,#629,#630);
#566=AXIS2_PLACEMENT_3D('',#796,#632,#633);
#567=AXIS2_PLACEMENT_3D('',#799,#635,#636);
#568=AXIS2_PLACEMENT_3D('',#801,#637,#638);
#569=AXIS2_PLACEMENT_3D('',#803,#639,#640);
#570=AXIS2_PLACEMENT_3D('',#805,#641,#642);
#571=AXIS2_PLACEMENT_3D('',#806,#643,#644);
#572=AXIS2_PLACEMENT_3D('',#809,#645,#646);
#573=AXIS2_PLACEMENT_3D('',#812,#649,#650);
#574=AXIS2_PLACEMENT_3D('',#816,#653,#654);
#575=AXIS2_PLACEMENT_3D('',#836,#664,#665);
#576=AXIS2_PLACEMENT_3D('',#840,#667,#668);
#577=AXIS2_PLACEMENT_3D('',#843,#670,#671);
#578=AXIS2_PLACEMENT_3D('',#845,#672,#673);
#579=AXIS2_PLACEMENT_3D('',#847,#674,#675);
#580=AXIS2_PLACEMENT_3D('',#849,#676,#677);
#581=AXIS2_PLACEMENT_3D('',#851,#678,#679);
#582=AXIS2_PLACEMENT_3D('',#852,#680,#681);
#583=AXIS2_PLACEMENT_3D('',#854,#683,#684);
#584=AXIS2_PLACEMENT_3D('',#856,#686,#687);
#585=AXIS2_PLACEMENT_3D('',#858,#689,#690);
#586=AXIS2_PLACEMENT_3D('',#860,#692,#693);
#587=AXIS2_PLACEMENT_3D('',#862,#695,#696);
#588=AXIS2_PLACEMENT_3D('',#868,#700,#701);
#589=AXIS2_PLACEMENT_3D('',#872,#704,#705);
#590=AXIS2_PLACEMENT_3D('',#876,#708,#709);
#591=AXIS2_PLACEMENT_3D('',#878,#711,#712);
#592=AXIS2_PLACEMENT_3D('',#887,#717,#718);
#593=AXIS2_PLACEMENT_3D('',#890,#721,#722);
#594=AXIS2_PLACEMENT_3D('',#892,#724,#725);
#595=AXIS2_PLACEMENT_3D('',#894,#726,#727);
#596=AXIS2_PLACEMENT_3D('',#896,#729,#730);
#597=AXIS2_PLACEMENT_3D('',#898,#731,#732);
#598=AXIS2_PLACEMENT_3D('',#900,#734,#735);
#599=AXIS2_PLACEMENT_3D('',#902,#736,#737);
#600=AXIS2_PLACEMENT_3D('',#904,#739,#740);
#601=AXIS2_PLACEMENT_3D('',#906,#741,#742);
#602=AXIS2_PLACEMENT_3D('',#908,#744,#745);
#603=AXIS2_PLACEMENT_3D('',#910,#747,#748);
#604=AXIS2_PLACEMENT_3D('',#911,#749,#750);
#605=AXIS2_PLACEMENT_3D('',#914,#752,#753);
#606=AXIS2_PLACEMENT_3D('',#915,#754,#755);
#607=AXIS2_PLACEMENT_3D('',#916,#756,#757);
#608=AXIS2_PLACEMENT_3D('',#919,#759,#760);
#609=AXIS2_PLACEMENT_3D('',#920,#761,#762);
#610=AXIS2_PLACEMENT_3D('',#921,#763,#764);
#611=AXIS2_PLACEMENT_3D('',#924,#766,#767);
#612=AXIS2_PLACEMENT_3D('',#925,#768,#769);
#613=AXIS2_PLACEMENT_3D('',#926,#770,#771);
#614=AXIS2_PLACEMENT_3D('',#929,#773,#774);
#615=AXIS2_PLACEMENT_3D('',#930,#775,#776);
#616=AXIS2_PLACEMENT_3D('',#931,#777,#778);
#617=DIRECTION('axis',(0.,0.,1.));
#618=DIRECTION('refdir',(1.,0.,0.));
#619=DIRECTION('axis',(0.,0.,1.));
#620=DIRECTION('refdir',(1.,0.,0.));
#621=DIRECTION('center_axis',(0.,0.,1.));
#622=DIRECTION('ref_axis',(1.,0.,0.));
#623=DIRECTION('center_axis',(0.,0.,1.));
#624=DIRECTION('ref_axis',(-0.707106781186547,0.707106781186547,0.));
#625=DIRECTION('',(1.,1.05735526154777E-16,0.));
#626=DIRECTION('center_axis',(0.,0.,1.));
#627=DIRECTION('ref_axis',(0.707106781186547,0.707106781186547,0.));
#628=DIRECTION('',(0.,-1.,0.));
#629=DIRECTION('center_axis',(0.,0.,1.));
#630=DIRECTION('ref_axis',(0.707106781186547,-0.707106781186547,0.));
#631=DIRECTION('',(-1.,0.,0.));
#632=DIRECTION('center_axis',(0.,0.,1.));
#633=DIRECTION('ref_axis',(-0.707106781186547,-0.707106781186547,0.));
#634=DIRECTION('',(0.,1.,0.));
#635=DIRECTION('center_axis',(0.,0.,-1.));
#636=DIRECTION('ref_axis',(1.,0.,0.));
#637=DIRECTION('center_axis',(0.,0.,-1.));
#638=DIRECTION('ref_axis',(1.,0.,0.));
#639=DIRECTION('center_axis',(0.,0.,-1.));
#640=DIRECTION('ref_axis',(1.,0.,0.));
#641=DIRECTION('center_axis',(0.,0.,-1.));
#642=DIRECTION('ref_axis',(1.,0.,0.));
#643=DIRECTION('center_axis',(0.,0.,1.));
#644=DIRECTION('ref_axis',(-0.707106781186547,0.707106781186547,0.));
#645=DIRECTION('center_axis',(0.,0.,-1.));
#646=DIRECTION('ref_axis',(-0.707106781186547,0.707106781186547,0.));
#647=DIRECTION('',(0.,0.,-1.));
#648=DIRECTION('',(0.,0.,1.));
#649=DIRECTION('center_axis',(-1.05735526154777E-16,1.,0.));
#650=DIRECTION('ref_axis',(-1.,-1.05735526154777E-16,0.));
#651=DIRECTION('',(-1.,-1.05735526154777E-16,0.));
#652=DIRECTION('',(0.,0.,1.));
#653=DIRECTION('center_axis',(0.,0.,1.));
#654=DIRECTION('ref_axis',(1.,0.,0.));
#655=DIRECTION('',(0.,-1.,0.));
#656=DIRECTION('',(1.,0.,0.));
#657=DIRECTION('',(0.,1.,0.));
#658=DIRECTION('',(1.,0.,0.));
#659=DIRECTION('',(0.,-1.,0.));
#660=DIRECTION('',(-1.,0.,0.));
#661=DIRECTION('',(0.,1.,0.));
#662=DIRECTION('',(-1.,0.,0.));
#663=DIRECTION('',(0.,-1.,0.));
#664=DIRECTION('center_axis',(0.,0.,-1.));
#665=DIRECTION('ref_axis',(-0.707106781186547,-0.707106781186547,0.));
#666=DIRECTION('',(1.,0.,0.));
#667=DIRECTION('center_axis',(0.,0.,-1.));
#668=DIRECTION('ref_axis',(0.707106781186547,-0.707106781186547,0.));
#669=DIRECTION('',(0.,1.,0.));
#670=DIRECTION('center_axis',(0.,0.,-1.));
#671=DIRECTION('ref_axis',(0.707106781186547,0.707106781186547,0.));
#672=DIRECTION('center_axis',(0.,0.,-1.));
#673=DIRECTION('ref_axis',(1.,0.,0.));
#674=DIRECTION('center_axis',(0.,0.,-1.));
#675=DIRECTION('ref_axis',(1.,0.,0.));
#676=DIRECTION('center_axis',(0.,0.,-1.));
#677=DIRECTION('ref_axis',(1.,0.,0.));
#678=DIRECTION('center_axis',(0.,0.,-1.));
#679=DIRECTION('ref_axis',(1.,0.,0.));
#680=DIRECTION('center_axis',(0.,0.,1.));
#681=DIRECTION('ref_axis',(0.707106781186547,0.707106781186547,0.));
#682=DIRECTION('',(0.,0.,-1.));
#683=DIRECTION('center_axis',(1.,0.,0.));
#684=DIRECTION('ref_axis',(0.,1.,0.));
#685=DIRECTION('',(0.,0.,1.));
#686=DIRECTION('center_axis',(0.,0.,1.));
#687=DIRECTION('ref_axis',(0.707106781186547,-0.707106781186547,0.));
#688=DIRECTION('',(0.,0.,-1.));
#689=DIRECTION('center_axis',(0.,-1.,0.));
#690=DIRECTION('ref_axis',(1.,0.,0.));
#691=DIRECTION('',(0.,0.,1.));
#692=DIRECTION('center_axis',(0.,0.,1.));
#693=DIRECTION('ref_axis',(-0.707106781186547,-0.707106781186547,0.));
#694=DIRECTION('',(0.,0.,-1.));
#695=DIRECTION('center_axis',(-1.,0.,0.));
#696=DIRECTION('ref_axis',(0.,-1.,0.));
#697=DIRECTION('',(0.,0.,-1.));
#698=DIRECTION('',(0.,1.,0.));
#699=DIRECTION('',(0.,0.,1.));
#700=DIRECTION('center_axis',(0.,1.,0.));
#701=DIRECTION('ref_axis',(1.,0.,0.));
#702=DIRECTION('',(1.,0.,0.));
#703=DIRECTION('',(0.,0.,-1.));
#704=DIRECTION('center_axis',(0.,-1.,0.));
#705=DIRECTION('ref_axis',(-1.,0.,0.));
#706=DIRECTION('',(0.,0.,1.));
#707=DIRECTION('',(-1.,0.,0.));
#708=DIRECTION('center_axis',(0.,0.,-1.));
#709=DIRECTION('ref_axis',(-1.,0.,0.));
#710=DIRECTION('',(0.,-1.,0.));
#711=DIRECTION('center_axis',(0.,0.,1.));
#712=DIRECTION('ref_axis',(1.,0.,0.));
#713=DIRECTION('',(-1.,0.,0.));
#714=DIRECTION('',(0.,-1.,0.));
#715=DIRECTION('',(1.,0.,0.));
#716=DIRECTION('',(0.,1.,0.));
#717=DIRECTION('center_axis',(0.,-1.,0.));
#718=DIRECTION('ref_axis',(1.,0.,0.));
#719=DIRECTION('',(0.,0.,1.));
#720=DIRECTION('',(0.,0.,1.));
#721=DIRECTION('center_axis',(-1.,0.,0.));
#722=DIRECTION('ref_axis',(0.,-1.,0.));
#723=DIRECTION('',(0.,0.,1.));
#724=DIRECTION('center_axis',(0.,0.,1.));
#725=DIRECTION('ref_axis',(1.,0.,0.));
#726=DIRECTION('center_axis',(0.,0.,1.));
#727=DIRECTION('ref_axis',(1.,0.,0.));
#728=DIRECTION('',(0.,0.,-1.));
#729=DIRECTION('center_axis',(0.,0.,1.));
#730=DIRECTION('ref_axis',(1.,0.,0.));
#731=DIRECTION('center_axis',(0.,0.,1.));
#732=DIRECTION('ref_axis',(1.,0.,0.));
#733=DIRECTION('',(0.,0.,-1.));
#734=DIRECTION('center_axis',(0.,0.,1.));
#735=DIRECTION('ref_axis',(1.,0.,0.));
#736=DIRECTION('center_axis',(0.,0.,1.));
#737=DIRECTION('ref_axis',(1.,0.,0.));
#738=DIRECTION('',(0.,0.,-1.));
#739=DIRECTION('center_axis',(0.,0.,1.));
#740=DIRECTION('ref_axis',(1.,0.,0.));
#741=DIRECTION('center_axis',(0.,0.,1.));
#742=DIRECTION('ref_axis',(1.,0.,0.));
#743=DIRECTION('',(0.,0.,-1.));
#744=DIRECTION('center_axis',(1.,0.,0.));
#745=DIRECTION('ref_axis',(0.,1.,0.));
#746=DIRECTION('',(0.,0.,1.));
#747=DIRECTION('center_axis',(0.,1.,0.));
#748=DIRECTION('ref_axis',(-1.,0.,0.));
#749=DIRECTION('center_axis',(0.,0.,1.));
#750=DIRECTION('ref_axis',(1.,0.,0.));
#751=DIRECTION('',(0.,0.,-1.));
#752=DIRECTION('center_axis',(0.,0.,-1.));
#753=DIRECTION('ref_axis',(1.,0.,0.));
#754=DIRECTION('center_axis',(0.,0.,1.));
#755=DIRECTION('ref_axis',(1.,0.,0.));
#756=DIRECTION('center_axis',(0.,0.,1.));
#757=DIRECTION('ref_axis',(1.,0.,0.));
#758=DIRECTION('',(0.,0.,-1.));
#759=DIRECTION('center_axis',(0.,0.,-1.));
#760=DIRECTION('ref_axis',(1.,0.,0.));
#761=DIRECTION('center_axis',(0.,0.,1.));
#762=DIRECTION('ref_axis',(1.,0.,0.));
#763=DIRECTION('center_axis',(0.,0.,1.));
#764=DIRECTION('ref_axis',(1.,0.,0.));
#765=DIRECTION('',(0.,0.,-1.));
#766=DIRECTION('center_axis',(0.,0.,-1.));
#767=DIRECTION('ref_axis',(1.,0.,0.));
#768=DIRECTION('center_axis',(0.,0.,1.));
#769=DIRECTION('ref_axis',(1.,0.,0.));
#770=DIRECTION('center_axis',(0.,0.,1.));
#771=DIRECTION('ref_axis',(1.,0.,0.));
#772=DIRECTION('',(0.,0.,-1.));
#773=DIRECTION('center_axis',(0.,0.,-1.));
#774=DIRECTION('ref_axis',(1.,0.,0.));
#775=DIRECTION('center_axis',(0.,0.,1.));
#776=DIRECTION('ref_axis',(1.,0.,0.));
#777=DIRECTION('',(0.,0.,1.));
#778=DIRECTION('',(1.,0.,0.));
#779=CARTESIAN_POINT('',(0.,0.,0.));
#780=CARTESIAN_POINT('',(0.,0.,0.));
#781=CARTESIAN_POINT('Origin',(-0.216383705122842,-0.359136362478543,0.));
#782=CARTESIAN_POINT('',(-37.2163837051228,59.8908636375215,0.));
#783=CARTESIAN_POINT('',(-42.2163837051228,54.8908636375215,0.));
#784=CARTESIAN_POINT('Origin',(-37.2163837051228,54.8908636375215,0.));
#785=CARTESIAN_POINT('',(36.7836162948772,59.8908636375215,0.));
#786=CARTESIAN_POINT('',(-42.2163837051228,59.8908636375215,0.));
#787=CARTESIAN_POINT('',(41.7836162948772,54.8908636375215,0.));
#788=CARTESIAN_POINT('Origin',(36.7836162948772,54.8908636375215,0.));
#789=CARTESIAN_POINT('',(41.7836162948772,-55.6091363624786,0.));
#790=CARTESIAN_POINT('',(41.7836162948772,59.8908636375215,0.));
#791=CARTESIAN_POINT('',(36.7836162948772,-60.6091363624786,0.));
#792=CARTESIAN_POINT('Origin',(36.7836162948772,-55.6091363624786,0.));
#793=CARTESIAN_POINT('',(-37.2163837051228,-60.6091363624786,0.));
#794=CARTESIAN_POINT('',(41.7836162948772,-60.6091363624786,0.));
#795=CARTESIAN_POINT('',(-42.2163837051228,-55.6091363624786,0.));
#796=CARTESIAN_POINT('Origin',(-37.2163837051228,-55.6091363624786,0.));
#797=CARTESIAN_POINT('',(-42.2163837051228,-60.6091363624786,0.));
#798=CARTESIAN_POINT('',(-40.2163837051228,54.8908636375215,0.));
#799=CARTESIAN_POINT('Origin',(-37.2163837051228,54.8908636375215,0.));
#800=CARTESIAN_POINT('',(-40.2163837051228,-55.6091363624786,0.));
#801=CARTESIAN_POINT('Origin',(-37.2163837051228,-55.6091363624786,0.));
#802=CARTESIAN_POINT('',(33.7836162948772,-55.6091363624786,0.));
#803=CARTESIAN_POINT('Origin',(36.7836162948772,-55.6091363624786,0.));
#804=CARTESIAN_POINT('',(33.7836162948772,54.8908636375215,0.));
#805=CARTESIAN_POINT('Origin',(36.7836162948772,54.8908636375215,0.));
#806=CARTESIAN_POINT('Origin',(-37.2163837051228,54.8908636375215,0.));
#807=CARTESIAN_POINT('',(-42.2163837051228,54.8908636375215,16.));
#808=CARTESIAN_POINT('',(-37.2163837051228,59.8908636375215,16.));
#809=CARTESIAN_POINT('Origin',(-37.2163837051228,54.8908636375215,16.));
#810=CARTESIAN_POINT('',(-37.2163837051228,59.8908636375215,0.));
#811=CARTESIAN_POINT('',(-42.2163837051228,54.8908636375215,0.));
#812=CARTESIAN_POINT('Origin',(41.7836162948772,59.8908636375215,0.));
#813=CARTESIAN_POINT('',(36.7836162948772,59.8908636375215,16.));
#814=CARTESIAN_POINT('',(-42.2163837051228,59.8908636375215,16.));
#815=CARTESIAN_POINT('',(36.7836162948772,59.8908636375215,0.));
#816=CARTESIAN_POINT('Origin',(36.7836162948772,54.8908636375215,16.));
#817=CARTESIAN_POINT('',(-42.2163837051228,48.4448636375215,16.));
#818=CARTESIAN_POINT('',(-42.2163837051228,-60.6091363624786,16.));
#819=CARTESIAN_POINT('',(-32.2163837051228,48.4448636375215,16.));
#820=CARTESIAN_POINT('',(-2.71638370512284,48.4448636375215,16.));
#821=CARTESIAN_POINT('',(-32.2163837051228,49.8908636375214,16.));
#822=CARTESIAN_POINT('',(-32.2163837051228,-50.6091363624786,16.));
#823=CARTESIAN_POINT('',(31.7836162948772,49.8908636375214,16.));
#824=CARTESIAN_POINT('',(-32.2163837051228,49.8908636375214,16.));
#825=CARTESIAN_POINT('',(31.7836162948772,-50.6091363624785,16.));
#826=CARTESIAN_POINT('',(31.7836162948772,49.8908636375214,16.));
#827=CARTESIAN_POINT('',(-32.2163837051228,-50.6091363624785,16.));
#828=CARTESIAN_POINT('',(31.7836162948772,-50.6091363624786,16.));
#829=CARTESIAN_POINT('',(-32.2163837051228,29.9448636375215,16.));
#830=CARTESIAN_POINT('',(-32.2163837051228,-50.6091363624786,16.));
#831=CARTESIAN_POINT('',(-42.2163837051228,29.9448636375215,16.));
#832=CARTESIAN_POINT('',(2.28361629487716,29.9448636375215,16.));
#833=CARTESIAN_POINT('',(-42.2163837051228,-55.6091363624786,16.));
#834=CARTESIAN_POINT('',(-42.2163837051228,-60.6091363624786,16.));
#835=CARTESIAN_POINT('',(-37.2163837051228,-60.6091363624786,16.));
#836=CARTESIAN_POINT('Origin',(-37.2163837051228,-55.6091363624786,16.));
#837=CARTESIAN_POINT('',(36.7836162948772,-60.6091363624786,16.));
#838=CARTESIAN_POINT('',(41.7836162948772,-60.6091363624786,16.));
#839=CARTESIAN_POINT('',(41.7836162948772,-55.6091363624786,16.));
#840=CARTESIAN_POINT('Origin',(36.7836162948772,-55.6091363624786,16.));
#841=CARTESIAN_POINT('',(41.7836162948772,54.8908636375215,16.));
#842=CARTESIAN_POINT('',(41.7836162948772,59.8908636375215,16.));
#843=CARTESIAN_POINT('Origin',(36.7836162948772,54.8908636375215,16.));
#844=CARTESIAN_POINT('',(35.0836162948772,54.8908636375215,16.));
#845=CARTESIAN_POINT('Origin',(36.7836162948772,54.8908636375215,16.));
#846=CARTESIAN_POINT('',(-38.9163837051228,-55.6091363624786,16.));
#847=CARTESIAN_POINT('Origin',(-37.2163837051228,-55.6091363624786,16.));
#848=CARTESIAN_POINT('',(35.0836162948772,-55.6091363624786,16.));
#849=CARTESIAN_POINT('Origin',(36.7836162948772,-55.6091363624786,16.));
#850=CARTESIAN_POINT('',(-38.9163837051228,54.8908636375215,16.));
#851=CARTESIAN_POINT('Origin',(-37.2163837051228,54.8908636375215,16.));
#852=CARTESIAN_POINT('Origin',(36.7836162948772,54.8908636375215,0.));
#853=CARTESIAN_POINT('',(41.7836162948772,54.8908636375215,0.));
#854=CARTESIAN_POINT('Origin',(41.7836162948772,-60.6091363624786,0.));
#855=CARTESIAN_POINT('',(41.7836162948772,-55.6091363624786,0.));
#856=CARTESIAN_POINT('Origin',(36.7836162948772,-55.6091363624786,0.));
#857=CARTESIAN_POINT('',(36.7836162948772,-60.6091363624786,0.));
#858=CARTESIAN_POINT('Origin',(-42.2163837051228,-60.6091363624786,0.));
#859=CARTESIAN_POINT('',(-37.2163837051228,-60.6091363624786,0.));
#860=CARTESIAN_POINT('Origin',(-37.2163837051228,-55.6091363624786,0.));
#861=CARTESIAN_POINT('',(-42.2163837051228,-55.6091363624786,0.));
#862=CARTESIAN_POINT('Origin',(-42.2163837051228,59.8908636375214,0.));
#863=CARTESIAN_POINT('',(-42.2163837051228,29.9448636375215,8.5));
#864=CARTESIAN_POINT('',(-42.2163837051228,29.9448636375215,6.5));
#865=CARTESIAN_POINT('',(-42.2163837051228,48.4448636375215,8.5));
#866=CARTESIAN_POINT('',(-42.2163837051228,49.5428636375215,8.5));
#867=CARTESIAN_POINT('',(-42.2163837051228,48.4448636375215,6.5));
#868=CARTESIAN_POINT('Origin',(-42.2163837051228,48.4448636375215,13.));
#869=CARTESIAN_POINT('',(-32.2163837051228,48.4448636375215,8.5));
#870=CARTESIAN_POINT('',(-42.2163837051228,48.4448636375215,8.5));
#871=CARTESIAN_POINT('',(-32.2163837051228,48.4448636375215,6.5));
#872=CARTESIAN_POINT('Origin',(-32.2163837051228,29.9448636375215,13.));
#873=CARTESIAN_POINT('',(-32.2163837051228,29.9448636375215,8.5));
#874=CARTESIAN_POINT('',(-32.2163837051228,29.9448636375215,6.5));
#875=CARTESIAN_POINT('',(-32.2163837051228,29.9448636375215,8.5));
#876=CARTESIAN_POINT('Origin',(-37.2163837051228,39.1948636375215,8.5));
#877=CARTESIAN_POINT('',(-32.2163837051228,-5.70713636247854,8.5));
#878=CARTESIAN_POINT('Origin',(-0.216383705122842,-0.359136362478552,3.));
#879=CARTESIAN_POINT('',(31.7836162948772,-50.6091363624786,3.));
#880=CARTESIAN_POINT('',(-32.2163837051228,-50.6091363624786,3.));
#881=CARTESIAN_POINT('',(15.7836162948772,-50.6091363624786,3.));
#882=CARTESIAN_POINT('',(31.7836162948772,49.8908636375214,3.));
#883=CARTESIAN_POINT('',(31.7836162948772,24.7658636375214,3.));
#884=CARTESIAN_POINT('',(-32.2163837051228,49.8908636375214,3.));
#885=CARTESIAN_POINT('',(-16.2163837051228,49.8908636375214,3.));
#886=CARTESIAN_POINT('',(-32.2163837051228,-25.4841363624786,3.));
#887=CARTESIAN_POINT('Origin',(-32.2163837051228,49.8908636375214,0.));
#888=CARTESIAN_POINT('',(31.7836162948772,49.8908636375214,0.));
#889=CARTESIAN_POINT('',(-32.2163837051228,49.8908636375214,0.));
#890=CARTESIAN_POINT('Origin',(31.7836162948772,49.8908636375214,0.));
#891=CARTESIAN_POINT('',(31.7836162948772,-50.6091363624786,0.));
#892=CARTESIAN_POINT('Origin',(36.7836162948772,54.8908636375215,0.));
#893=CARTESIAN_POINT('',(33.7836162948772,54.8908636375215,3.1));
#894=CARTESIAN_POINT('Origin',(36.7836162948772,54.8908636375215,3.1));
#895=CARTESIAN_POINT('',(33.7836162948772,54.8908636375215,0.));
#896=CARTESIAN_POINT('Origin',(-37.2163837051228,54.8908636375215,0.));
#897=CARTESIAN_POINT('',(-40.2163837051228,54.8908636375215,3.1));
#898=CARTESIAN_POINT('Origin',(-37.2163837051228,54.8908636375215,3.1));
#899=CARTESIAN_POINT('',(-40.2163837051228,54.8908636375215,0.));
#900=CARTESIAN_POINT('Origin',(-37.2163837051228,-55.6091363624786,0.));
#901=CARTESIAN_POINT('',(-40.2163837051228,-55.6091363624786,3.1));
#902=CARTESIAN_POINT('Origin',(-37.2163837051228,-55.6091363624786,3.1));
#903=CARTESIAN_POINT('',(-40.2163837051228,-55.6091363624786,0.));
#904=CARTESIAN_POINT('Origin',(36.7836162948772,-55.6091363624786,0.));
#905=CARTESIAN_POINT('',(33.7836162948772,-55.6091363624786,3.1));
#906=CARTESIAN_POINT('Origin',(36.7836162948772,-55.6091363624786,3.1));
#907=CARTESIAN_POINT('',(33.7836162948772,-55.6091363624786,0.));
#908=CARTESIAN_POINT('Origin',(-32.2163837051228,-50.6091363624786,0.));
#909=CARTESIAN_POINT('',(-32.2163837051228,-50.6091363624786,0.));
#910=CARTESIAN_POINT('Origin',(31.7836162948772,-50.6091363624786,0.));
#911=CARTESIAN_POINT('Origin',(36.7836162948772,-55.6091363624786,3.1));
#912=CARTESIAN_POINT('',(35.0836162948772,-55.6091363624786,3.1));
#913=CARTESIAN_POINT('',(35.0836162948772,-55.6091363624786,3.1));
#914=CARTESIAN_POINT('Origin',(36.7836162948772,-55.6091363624786,3.1));
#915=CARTESIAN_POINT('Origin',(36.7836162948772,-55.6091363624786,3.1));
#916=CARTESIAN_POINT('Origin',(-37.2163837051228,-55.6091363624786,3.1));
#917=CARTESIAN_POINT('',(-38.9163837051228,-55.6091363624786,3.1));
#918=CARTESIAN_POINT('',(-38.9163837051228,-55.6091363624786,3.1));
#919=CARTESIAN_POINT('Origin',(-37.2163837051228,-55.6091363624786,3.1));
#920=CARTESIAN_POINT('Origin',(-37.2163837051228,-55.6091363624786,3.1));
#921=CARTESIAN_POINT('Origin',(-37.2163837051228,54.8908636375215,3.1));
#922=CARTESIAN_POINT('',(-38.9163837051228,54.8908636375215,3.1));
#923=CARTESIAN_POINT('',(-38.9163837051228,54.8908636375215,3.1));
#924=CARTESIAN_POINT('Origin',(-37.2163837051228,54.8908636375215,3.1));
#925=CARTESIAN_POINT('Origin',(-37.2163837051228,54.8908636375215,3.1));
#926=CARTESIAN_POINT('Origin',(36.7836162948772,54.8908636375215,3.1));
#927=CARTESIAN_POINT('',(35.0836162948772,54.8908636375215,3.1));
#928=CARTESIAN_POINT('',(35.0836162948772,54.8908636375215,3.1));
#929=CARTESIAN_POINT('Origin',(36.7836162948772,54.8908636375215,3.1));
#930=CARTESIAN_POINT('Origin',(36.7836162948772,54.8908636375215,3.1));
#931=CARTESIAN_POINT('',(0.,0.,0.));
#932=UNCERTAINTY_MEASURE_WITH_UNIT(LENGTH_MEASURE(0.01),#938,
'DISTANCE_ACCURACY_VALUE',
'Maximum model space distance between geometric entities at asserted c
onnectivities');
#933=UNCERTAINTY_MEASURE_WITH_UNIT(LENGTH_MEASURE(0.01),#938,
'DISTANCE_ACCURACY_VALUE',
'Maximum model space distance between geometric entities at asserted c
onnectivities');
#934=UNCERTAINTY_MEASURE_WITH_UNIT(LENGTH_MEASURE(0.01),#938,
'DISTANCE_ACCURACY_VALUE',
'Maximum model space distance between geometric entities at asserted c
onnectivities');
#935=(
GEOMETRIC_REPRESENTATION_CONTEXT(3)
GLOBAL_UNCERTAINTY_ASSIGNED_CONTEXT((#932))
GLOBAL_UNIT_ASSIGNED_CONTEXT((#938,#940,#941))
REPRESENTATION_CONTEXT('','3D')
);
#936=(
GEOMETRIC_REPRESENTATION_CONTEXT(3)
GLOBAL_UNCERTAINTY_ASSIGNED_CONTEXT((#933))
GLOBAL_UNIT_ASSIGNED_CONTEXT((#938,#940,#941))
REPRESENTATION_CONTEXT('','3D')
);
#937=(
GEOMETRIC_REPRESENTATION_CONTEXT(3)
GLOBAL_UNCERTAINTY_ASSIGNED_CONTEXT((#934))
GLOBAL_UNIT_ASSIGNED_CONTEXT((#938,#940,#941))
REPRESENTATION_CONTEXT('','3D')
);
#938=(
LENGTH_UNIT()
NAMED_UNIT(*)
SI_UNIT(.MILLI.,.METRE.)
);
#939=(
LENGTH_UNIT()
NAMED_UNIT(*)
SI_UNIT($,.METRE.)
);
#940=(
NAMED_UNIT(*)
PLANE_ANGLE_UNIT()
SI_UNIT($,.RADIAN.)
);
#941=(
NAMED_UNIT(*)
SI_UNIT($,.STERADIAN.)
SOLID_ANGLE_UNIT()
);
#942=SHAPE_DEFINITION_REPRESENTATION(#944,#947);
#943=SHAPE_DEFINITION_REPRESENTATION(#945,#948);
#944=PRODUCT_DEFINITION_SHAPE('',$,#950);
#945=PRODUCT_DEFINITION_SHAPE('',$,#951);
#946=PRODUCT_DEFINITION_SHAPE($,$,#14);
#947=SHAPE_REPRESENTATION('',(#560,#616),#935);
#948=SHAPE_REPRESENTATION('',(#561),#936);
#949=PRODUCT_DEFINITION_CONTEXT('part definition',#957,'design');
#950=PRODUCT_DEFINITION('2026-01-12-17-24-21-301','Macropad Bottom',#952,
#949);
#951=PRODUCT_DEFINITION('2026-01-12-17-26-55-637','Custom Macropad',#953,
#949);
#952=PRODUCT_DEFINITION_FORMATION('',$,#959);
#953=PRODUCT_DEFINITION_FORMATION('',$,#960);
#954=PRODUCT_RELATED_PRODUCT_CATEGORY('Macropad Bottom',
'Macropad Bottom',(#959));
#955=PRODUCT_RELATED_PRODUCT_CATEGORY('Custom Macropad',
'Custom Macropad',(#960));
#956=APPLICATION_PROTOCOL_DEFINITION('international standard',
'automotive_design',2009,#957);
#957=APPLICATION_CONTEXT(
'Core Data for Automotive Mechanical Design Process');
#958=PRODUCT_CONTEXT('part definition',#957,'mechanical');
#959=PRODUCT('2026-01-12-17-24-21-301','Macropad Bottom',$,(#958));
#960=PRODUCT('2026-01-12-17-26-55-637','Custom Macropad',$,(#958));
#961=PRESENTATION_STYLE_ASSIGNMENT((#962));
#962=SURFACE_STYLE_USAGE(.BOTH.,#963);
#963=SURFACE_SIDE_STYLE('',(#964));
#964=SURFACE_STYLE_FILL_AREA(#965);
#965=FILL_AREA_STYLE('Steel - Satin',(#966));
#966=FILL_AREA_STYLE_COLOUR('Steel - Satin',#967);
#967=COLOUR_RGB('Steel - Satin',0.627450980392157,0.627450980392157,0.627450980392157);
ENDSEC;
END-ISO-10303-21;
